<svg width="16" height="11" viewBox="0 0 26 17" fill="none" xmlns="http://www.w3.org/2000/svg">
<path fill-rule="evenodd" clip-rule="evenodd" d="M1.81773 7.36626C3.88912 7.80795 6.31842 8.75226 7.7958 10.2906C9.01426 11.5471 11.177 14.0145 12.068 15.5452C12.327 15.9869 12.5935 16.4286 12.86 16.8702C12.8753 14.4638 12.8829 11.905 12.8067 9.50618C12.761 7.94503 12.2127 5.43957 11.5806 4.01549C10.7963 2.34772 10.347 1.51765 8.99903 0.146881C6.60019 2.53811 4.20896 4.9598 1.81773 7.36626Z" fill="#02BDBD"/>
<path fill-rule="evenodd" clip-rule="evenodd" d="M1.81773 7.36625C3.88911 7.80794 6.31842 8.75225 7.7958 10.2906C9.01426 11.5471 11.177 14.0145 12.068 15.5452C12.3269 15.9869 12.5935 16.4285 12.86 16.8702C12.8753 14.4638 12.8829 11.905 12.8067 9.50617C12.761 7.94502 12.2127 5.43956 11.5806 4.01548C10.7963 2.34772 10.3469 1.51764 8.99903 0.146871C6.60018 2.5381 4.20896 4.95979 1.81773 7.36625ZM5.25226 8.63802C4.1328 8.08971 2.91434 7.70132 1.79488 7.46525C1.77204 7.46525 1.75681 7.45002 1.74158 7.43479C1.69588 7.39671 1.69588 7.32817 1.74158 7.29009C2.45742 6.56663 3.18088 5.84317 3.89673 5.11971C5.57211 3.4291 7.24749 1.7461 8.92287 0.0707177C8.96857 0.0326408 9.0371 0.0326408 9.07518 0.0707177C9.75295 0.763717 10.2099 1.31964 10.5906 1.91364C10.9714 2.50764 11.2836 3.1321 11.672 3.96979V3.97741C11.9919 4.68564 12.2889 5.66802 12.5097 6.65802C12.7382 7.67086 12.8905 8.70655 12.9133 9.49855C12.9514 10.7018 12.9666 11.9431 12.9743 13.1844C12.9819 14.4257 12.9743 15.667 12.9666 16.8702C12.9666 16.9083 12.9438 16.9388 12.9133 16.9616C12.8676 16.9921 12.7991 16.9769 12.7686 16.9235C12.6392 16.7103 12.5097 16.4895 12.3726 16.2686V16.261C12.2356 16.0402 12.1061 15.8117 11.9766 15.5985C11.5959 14.9435 10.9866 14.1211 10.3089 13.291C9.41026 12.1868 8.41264 11.0826 7.71964 10.3591C7.05711 9.66609 6.18895 9.09494 5.25226 8.63802Z" fill="#02BDBD"/>
<path fill-rule="evenodd" clip-rule="evenodd" d="M23.8338 7.3891C21.7624 7.83079 18.7086 9.21679 17.2236 10.7551C16.0128 12.0116 14.4745 14.0373 13.5758 15.568C13.3169 16.0173 13.058 16.4514 12.7915 16.8931C12.7686 14.4866 12.86 11.9279 12.8372 9.52902C12.8295 7.96786 13.2941 5.98025 13.8728 4.30487C14.3907 2.79702 15.2284 1.63187 16.5154 0.101181C18.9218 2.50002 21.4425 4.98264 23.8338 7.3891Z" fill="#17A1A1"/>
<path fill-rule="evenodd" clip-rule="evenodd" d="M23.8566 7.4881C22.7676 7.72418 21.4045 8.21918 20.1403 8.85887C19.0208 9.43002 17.9928 10.1154 17.2998 10.8236C16.6982 11.4557 16.0052 12.2858 15.3502 13.1463C14.7105 13.9916 14.1089 14.8674 13.6672 15.6213C13.553 15.8269 13.4235 16.0478 13.2789 16.2839C13.1494 16.4971 13.0199 16.7179 12.8829 16.9464C12.8524 16.9997 12.7839 17.0149 12.7382 16.9845C12.7001 16.9616 12.6849 16.9312 12.6849 16.8931C12.6772 15.6746 12.6925 14.4105 12.7077 13.1463C12.7229 11.9279 12.7458 10.7018 12.7382 9.52902C12.7305 8.79033 12.8295 7.96025 12.9971 7.10733C13.1875 6.1478 13.4616 5.16541 13.7739 4.2668C14.0328 3.50526 14.3755 2.83511 14.8172 2.15734C15.2589 1.47957 15.7919 0.801802 16.4392 0.032649C16.4773 -0.00542783 16.5382 -0.0130432 16.5839 0.0250337C16.5915 0.0250337 16.5915 0.0250337 16.5915 0.0250337C17.5282 0.961725 18.4878 1.91365 19.4397 2.86557C20.9399 4.35057 22.4478 5.84318 23.9099 7.31295C23.948 7.35102 23.948 7.41956 23.9099 7.45764C23.8947 7.47287 23.8718 7.4881 23.8566 7.4881ZM12.7915 16.8931C12.7686 14.4866 12.86 11.9279 12.8372 9.52902C12.8295 7.96787 13.2941 5.98026 13.8729 4.30487C14.3907 2.79703 15.2284 1.63188 16.5154 0.101187C18.9218 2.50003 21.4425 4.98264 23.8338 7.3891C21.7624 7.83079 18.7086 9.21679 17.2236 10.7551C16.0128 12.0116 14.4745 14.0373 13.5759 15.568C13.3169 16.0173 13.058 16.4514 12.7915 16.8931Z" fill="#17A1A1"/>
<path fill-rule="evenodd" clip-rule="evenodd" d="M11.2227 15.4918C13.1342 17.2891 13.5454 17.4566 11.6644 15.2253C9.73009 12.9255 7.71963 11.3567 4.81056 10.1154C3.67587 9.62801 3.18087 9.34624 1.99287 9.04163C1.48264 9.51378 1.0181 10.1154 0.523102 10.6028C1.61972 10.717 1.97764 10.7322 3.07425 11.0521C6.17371 11.9583 8.80863 13.3291 11.2227 15.4918Z" fill="#007FC9"/>
<path fill-rule="evenodd" clip-rule="evenodd" d="M11.2227 15.4918C13.1342 17.2891 13.5454 17.4566 11.6644 15.2253C9.7301 12.9255 7.71964 11.3567 4.81056 10.1154C3.67587 9.62801 3.18087 9.34624 1.99287 9.04163C1.48264 9.51378 1.01811 10.1154 0.523107 10.6028C1.61972 10.717 1.97764 10.7322 3.07426 11.0521C6.17372 11.9583 8.80864 13.3291 11.2227 15.4918ZM12.6392 16.8702C12.3879 16.6951 11.87 16.2458 11.1542 15.568C9.95094 14.4942 8.70202 13.6109 7.3541 12.895C6.01379 12.1715 4.58972 11.6004 3.0438 11.1511C2.07664 10.8693 1.68826 10.8312 0.842953 10.7399C0.728723 10.7322 0.614492 10.717 0.507877 10.7094C0.485031 10.7018 0.462184 10.6942 0.446954 10.6713C0.408877 10.6332 0.408877 10.5647 0.446954 10.5266C0.6678 10.3134 0.88103 10.0697 1.09426 9.83363C1.3608 9.53663 1.63495 9.23201 1.92434 8.97309C1.94718 8.94263 1.98526 8.93501 2.02334 8.94263C2.96764 9.18632 3.47026 9.40716 4.20895 9.73463C4.40695 9.8184 4.62018 9.9174 4.84864 10.0164C6.31079 10.6409 7.5521 11.3491 8.66394 12.1944C9.7834 13.0321 10.7734 13.9992 11.7482 15.1568C12.3955 15.9259 12.7762 16.4133 12.9133 16.6494C13.0047 16.8093 13.0123 16.9083 12.9362 16.954H12.9286C12.8752 16.9921 12.7762 16.9616 12.6392 16.8702Z" fill="#007FC9"/>
<path fill-rule="evenodd" clip-rule="evenodd" d="M11.3598 15.7889C8.96857 14.0525 5.06188 11.9507 2.06904 11.806C1.33034 11.7755 1.27704 11.9888 0.751576 12.5447C-0.169884 13.5119 -0.162269 13.2605 1.1095 13.3215C5.53403 13.5271 7.36172 14.0069 11.2684 16.1011C13.4312 17.2586 13.1951 17.1063 11.3598 15.7889Z" fill="#1D2645"/>
<path fill-rule="evenodd" clip-rule="evenodd" d="M11.3598 15.7889C8.96856 14.0525 5.06187 11.9507 2.06903 11.806C1.33034 11.7756 1.27703 11.9888 0.75157 12.5447C-0.16989 13.5119 -0.162275 13.2606 1.10949 13.3215C5.53403 13.5271 7.36172 14.0069 11.2684 16.1011C13.4312 17.2586 13.1951 17.1063 11.3598 15.7889ZM6.42502 12.8569C8.28318 13.6565 10.0804 14.7379 11.4207 15.7051L11.6492 15.865C12.5021 16.4819 12.9666 16.8169 12.9057 16.9312C12.8448 17.0454 12.3269 16.7865 11.2151 16.1925C9.27317 15.1492 7.84148 14.5095 6.35649 14.1059C4.86387 13.7022 3.31034 13.5271 1.10188 13.4205C0.835339 13.4129 0.629724 13.4129 0.477417 13.4129C0.203263 13.4129 0.058571 13.4129 0.0128788 13.3062C-0.0404289 13.1996 0.0738018 13.0778 0.317494 12.8417C0.408878 12.7427 0.530724 12.6209 0.675416 12.4686C0.766801 12.3772 0.835339 12.301 0.896262 12.2401C1.2618 11.8289 1.40649 11.6689 2.06903 11.707C3.41695 11.7679 4.94003 12.2249 6.42502 12.8569Z" fill="#1D2645"/>
<path fill-rule="evenodd" clip-rule="evenodd" d="M14.4668 15.4766C12.5554 17.2739 12.1442 17.449 14.0252 15.2177C15.9595 12.9179 17.9775 11.3491 20.8866 10.1002C22.0213 9.6128 22.5163 9.33864 23.6967 9.03403C24.2145 9.50618 24.6714 10.1078 25.1741 10.5952C24.0698 10.7094 23.7119 10.7246 22.6229 11.0445C19.5158 11.9431 16.8809 13.3215 14.4668 15.4766Z" fill="#007FC9"/>
<path fill-rule="evenodd" clip-rule="evenodd" d="M14.543 15.5528C13.8196 16.2306 13.3093 16.6799 13.0504 16.8626C12.9209 16.954 12.8219 16.9845 12.761 16.9464C12.6772 16.9007 12.6849 16.7941 12.7762 16.6418C12.9209 16.4057 13.3017 15.9183 13.949 15.1492V15.1416C14.9238 13.9916 15.9138 13.0169 17.0256 12.1792C18.1451 11.3415 19.3788 10.6333 20.8409 10.0088C21.0694 9.90979 21.2902 9.81079 21.4882 9.72702C22.2193 9.39956 22.7295 9.17872 23.6738 8.93502C23.7043 8.91979 23.75 8.93502 23.7728 8.95787C24.0622 9.22441 24.3288 9.52141 24.5953 9.82602C24.8085 10.0621 25.0218 10.2982 25.2426 10.519C25.2883 10.5571 25.2883 10.6256 25.2426 10.6637C25.2274 10.6866 25.2045 10.6942 25.1817 10.6942C25.0827 10.7094 24.9608 10.717 24.8542 10.7323C24.0013 10.8236 23.6129 10.8617 22.6534 11.1435C21.1075 11.5928 19.6758 12.1563 18.3355 12.8798C16.9952 13.6032 15.7386 14.4866 14.543 15.5528ZM14.4669 15.4766C12.5554 17.2739 12.1442 17.449 14.0252 15.2177C15.9595 12.9179 17.9775 11.3491 20.8866 10.1002C22.0213 9.61279 22.5163 9.33864 23.6967 9.03402C24.2145 9.50618 24.6715 10.1078 25.1741 10.5952C24.0698 10.7094 23.7119 10.7246 22.6229 11.0445C19.5159 11.9431 16.8809 13.3215 14.4669 15.4766Z" fill="#007FC9"/>
<path fill-rule="evenodd" clip-rule="evenodd" d="M14.3298 15.7812C16.7286 14.0449 20.6353 11.9431 23.6281 11.7984C24.3592 11.7679 24.4125 11.9812 24.938 12.5371C25.8594 13.5042 25.8518 13.2453 24.5877 13.3062C20.1555 13.5195 18.3355 13.9992 14.4288 16.0935C12.2584 17.251 12.5021 17.0987 14.3298 15.7812Z" fill="#1D2645"/>
<path fill-rule="evenodd" clip-rule="evenodd" d="M14.2765 15.6975C15.6092 14.7227 17.414 13.6413 19.2645 12.8493C20.7495 12.2096 22.2726 11.7603 23.6205 11.6918C24.2907 11.6613 24.4354 11.8212 24.8009 12.2249C24.8618 12.2934 24.9304 12.3696 25.0142 12.4609C25.1588 12.6132 25.2807 12.7351 25.3797 12.8341C25.6158 13.0702 25.73 13.1844 25.6843 13.2986C25.631 13.4052 25.4939 13.4052 25.2122 13.4052C25.0598 13.4052 24.8542 13.4052 24.5877 13.4129C22.3868 13.5195 20.8257 13.6946 19.3407 14.0982C17.8481 14.5019 16.424 15.1415 14.4745 16.1849C13.3702 16.7789 12.8448 17.0378 12.7839 16.9159C12.7229 16.8017 13.1875 16.4742 14.0404 15.8574L14.2689 15.6975H14.2765ZM14.3298 15.7812C16.7286 14.0449 20.6353 11.9431 23.6282 11.7984C24.3592 11.7679 24.4125 11.9812 24.938 12.5371C25.8595 13.5042 25.8518 13.2453 24.5877 13.3062C20.1555 13.5195 18.3355 13.9992 14.4288 16.0935C12.2584 17.251 12.5021 17.0987 14.3298 15.7812Z" fill="#1D2645"/>
</svg>
